<?xml version="1.0" encoding="UTF-8" standalone="no"?>
<!-- Created with Inkscape (http://www.inkscape.org/) -->

<svg
   xmlns:dc="http://purl.org/dc/elements/1.1/"
   xmlns:cc="http://creativecommons.org/ns#"
   xmlns:rdf="http://www.w3.org/1999/02/22-rdf-syntax-ns#"
   xmlns:svg="http://www.w3.org/2000/svg"
   xmlns="http://www.w3.org/2000/svg"
   xmlns:sodipodi="http://sodipodi.sourceforge.net/DTD/sodipodi-0.dtd"
   xmlns:inkscape="http://www.inkscape.org/namespaces/inkscape"
   id="svg11712"
   version="1.1"
   inkscape:version="0.91 r13725"
   width="410.42807"
   height="400"
   viewBox="0 0 410.42807 400.00001"
   sodipodi:docname="NCUT.svg">
  <metadata
     id="metadata11718">
    <rdf:RDF>
      <cc:Work
         rdf:about="">
        <dc:format>image/svg+xml</dc:format>
        <dc:type
           rdf:resource="http://purl.org/dc/dcmitype/StillImage" />
        <dc:title></dc:title>
      </cc:Work>
    </rdf:RDF>
  </metadata>
  <defs
     id="defs11716">
    <clipPath
       clipPathUnits="userSpaceOnUse"
       id="clipPath100">
      <path
         d="m 744.262,714.551 c 0,-93.578 76.144,-169.715 169.742,-169.715 93.576,0 169.726,76.137 169.726,169.715 0,93.597 -76.15,169.742 -169.726,169.742 -93.598,0 -169.742,-76.145 -169.742,-169.742 z"
         id="path102"
         inkscape:connector-curvature="0" />
    </clipPath>
    <clipPath
       id="clipPath12273"
       clipPathUnits="userSpaceOnUse">
      <path
         inkscape:connector-curvature="0"
         id="path12275"
         d="m 0,595.28 841.89,0 L 841.89,0 0,0 0,595.28 Z" />
    </clipPath>
    <clipPath
       clipPathUnits="userSpaceOnUse"
       id="clipPath384">
      <path
         d="m 3346.42,1940.22 0,-98.36 -275.71,0 c -27.16,0 -49.17,22.02 -49.17,49.18 l 0,238.05 c 0,27.16 22.01,49.18 49.17,49.18 l 275.71,0 0,-98.37 -226.53,0 0,-139.68 226.53,0 z"
         id="path386"
         style="clip-rule:evenodd"
         inkscape:connector-curvature="0" />
    </clipPath>
    <clipPath
       clipPathUnits="userSpaceOnUse"
       id="clipPath390">
      <path
         d="m 2641.29,2178.27 1477.15,0 0,-8.63 -1477.15,0 0,8.63 z m 0,-17.26 1477.15,0 0,-8.62 -1477.15,0 0,8.62 z m 0,-17.25 1477.15,0 0,-8.62 -1477.15,0 0,8.62 z m 0,-17.25 1477.15,0 0,-8.62 -1477.15,0 0,8.62 z m 0,-17.25 1477.15,0 0,-8.63 -1477.15,0 0,8.63 z m 0,-17.25 1477.15,0 0,-8.63 -1477.15,0 0,8.63 z m 0,-17.25 1477.15,0 0,-8.63 -1477.15,0 0,8.63 z m 0,-17.26 1477.15,0 0,-8.62 -1477.15,0 0,8.62 z m 0,-17.25 1477.15,0 0,-8.62 -1477.15,0 0,8.62 z m 0,-17.25 1477.15,0 0,-8.63 -1477.15,0 0,8.63 z m 0,-17.25 1477.15,0 0,-8.62 -1477.15,0 0,8.62 z m 0,-17.25 1477.15,0 0,-8.63 -1477.15,0 0,8.63 z m 0,-17.26 1477.15,0 0,-8.62 -1477.15,0 0,8.62 z m 0,-17.25 1477.15,0 0,-8.62 -1477.15,0 0,8.62 z m 0,-17.25 1477.15,0 0,-8.62 -1477.15,0 0,8.62 z m 0,-17.24 1477.15,0 0,-8.64 -1477.15,0 0,8.64 z m 0,-17.26 1477.15,0 0,-8.63 -1477.15,0 0,8.63 z m 0,-17.26 1477.15,0 0,-8.62 -1477.15,0 0,8.62 z m 0,-17.25 1477.15,0 0,-8.62 -1477.15,0 0,8.62 z m 0,-17.25 1477.15,0 0,-8.62 -1477.15,0 0,8.62 z"
         id="path392"
         inkscape:connector-curvature="0" />
    </clipPath>
    <clipPath
       clipPathUnits="userSpaceOnUse"
       id="clipPath652">
      <path
         d="m 3993.49,1841.86 -98.37,0 0,238.04 -119.2,0 0,98.37 336.76,0 0,-98.37 -119.19,0 0,-238.04 z"
         id="path654"
         style="clip-rule:evenodd"
         inkscape:connector-curvature="0" />
    </clipPath>
    <clipPath
       clipPathUnits="userSpaceOnUse"
       id="clipPath658">
      <path
         d="m 2635.53,2178.27 1477.15,0 0,-8.63 -1477.15,0 0,8.63 z m 0,-17.26 1477.15,0 0,-8.62 -1477.15,0 0,8.62 z m 0,-17.25 1477.15,0 0,-8.62 -1477.15,0 0,8.62 z m 0,-17.25 1477.15,0 0,-8.62 -1477.15,0 0,8.62 z m 0,-17.25 1477.15,0 0,-8.63 -1477.15,0 0,8.63 z m 0,-17.25 1477.15,0 0,-8.63 -1477.15,0 0,8.63 z m 0,-17.25 1477.15,0 0,-8.63 -1477.15,0 0,8.63 z m 0,-17.26 1477.15,0 0,-8.62 -1477.15,0 0,8.62 z m 0,-17.25 1477.15,0 0,-8.62 -1477.15,0 0,8.62 z m 0,-17.25 1477.15,0 0,-8.63 -1477.15,0 0,8.63 z m 0,-17.25 1477.15,0 0,-8.62 -1477.15,0 0,8.62 z m 0,-17.25 1477.15,0 0,-8.63 -1477.15,0 0,8.63 z m 0,-17.26 1477.15,0 0,-8.62 -1477.15,0 0,8.62 z m 0,-17.25 1477.15,0 0,-8.62 -1477.15,0 0,8.62 z m 0,-17.25 1477.15,0 0,-8.62 -1477.15,0 0,8.62 z m 0,-17.24 1477.15,0 0,-8.64 -1477.15,0 0,8.64 z m 0,-17.26 1477.15,0 0,-8.63 -1477.15,0 0,8.63 z m 0,-17.26 1477.15,0 0,-8.62 -1477.15,0 0,8.62 z m 0,-17.25 1477.15,0 0,-8.62 -1477.15,0 0,8.62 z m 0,-17.25 1477.15,0 0,-8.62 -1477.15,0 0,8.62 z"
         id="path660"
         inkscape:connector-curvature="0" />
    </clipPath>
    <clipPath
       clipPathUnits="userSpaceOnUse"
       id="clipPath920">
      <path
         d="m 3396.02,2178.27 98.37,0 0,-238.05 139.68,0 0,238.05 98.36,0 0,-287.23 c 0,-27.16 -22.02,-49.18 -49.18,-49.18 l -238.04,0 c -27.17,0 -49.19,22.02 -49.19,49.18 l 0,287.23 z"
         id="path922"
         style="clip-rule:evenodd"
         inkscape:connector-curvature="0" />
    </clipPath>
    <clipPath
       clipPathUnits="userSpaceOnUse"
       id="clipPath926">
      <path
         d="m 2635.53,2178.27 1477.15,0 0,-8.63 -1477.15,0 0,8.63 z m 0,-17.26 1477.15,0 0,-8.62 -1477.15,0 0,8.62 z m 0,-17.25 1477.15,0 0,-8.62 -1477.15,0 0,8.62 z m 0,-17.25 1477.15,0 0,-8.62 -1477.15,0 0,8.62 z m 0,-17.25 1477.15,0 0,-8.63 -1477.15,0 0,8.63 z m 0,-17.25 1477.15,0 0,-8.63 -1477.15,0 0,8.63 z m 0,-17.25 1477.15,0 0,-8.63 -1477.15,0 0,8.63 z m 0,-17.26 1477.15,0 0,-8.62 -1477.15,0 0,8.62 z m 0,-17.25 1477.15,0 0,-8.62 -1477.15,0 0,8.62 z m 0,-17.25 1477.15,0 0,-8.63 -1477.15,0 0,8.63 z m 0,-17.25 1477.15,0 0,-8.62 -1477.15,0 0,8.62 z m 0,-17.25 1477.15,0 0,-8.63 -1477.15,0 0,8.63 z m 0,-17.26 1477.15,0 0,-8.62 -1477.15,0 0,8.62 z m 0,-17.25 1477.15,0 0,-8.62 -1477.15,0 0,8.62 z m 0,-17.25 1477.15,0 0,-8.62 -1477.15,0 0,8.62 z m 0,-17.24 1477.15,0 0,-8.64 -1477.15,0 0,8.64 z m 0,-17.26 1477.15,0 0,-8.63 -1477.15,0 0,8.63 z m 0,-17.26 1477.15,0 0,-8.62 -1477.15,0 0,8.62 z m 0,-17.25 1477.15,0 0,-8.62 -1477.15,0 0,8.62 z m 0,-17.25 1477.15,0 0,-8.62 -1477.15,0 0,8.62 z"
         id="path928"
         inkscape:connector-curvature="0" />
    </clipPath>
    <clipPath
       clipPathUnits="userSpaceOnUse"
       id="clipPath1240">
      <path
         d="m 2728.37,1841.86 -98.37,0 0,336.41 75.83,0 c 18.33,-3.54 32.06,-10.26 41.18,-20.16 l 121.04,-130.86 0,151.02 98.36,-0.71 0,-335.7 -52.16,0 c -35.78,0 -52.74,17.06 -65.04,32 l -120.84,141.18 0,-173.18 z"
         id="path1242"
         style="clip-rule:evenodd"
         inkscape:connector-curvature="0" />
    </clipPath>
    <clipPath
       clipPathUnits="userSpaceOnUse"
       id="clipPath1246">
      <path
         d="m 2630,2178.27 1477.16,0 0,-8.63 -1477.16,0 0,8.63 z m 0,-17.26 1477.16,0 0,-8.62 -1477.16,0 0,8.62 z m 0,-17.25 1477.16,0 0,-8.62 -1477.16,0 0,8.62 z m 0,-17.25 1477.16,0 0,-8.62 -1477.16,0 0,8.62 z m 0,-17.25 1477.16,0 0,-8.63 -1477.16,0 0,8.63 z m 0,-17.25 1477.16,0 0,-8.63 -1477.16,0 0,8.63 z m 0,-17.25 1477.16,0 0,-8.63 -1477.16,0 0,8.63 z m 0,-17.26 1477.16,0 0,-8.62 -1477.16,0 0,8.62 z m 0,-17.25 1477.16,0 0,-8.62 -1477.16,0 0,8.62 z m 0,-17.25 1477.16,0 0,-8.63 -1477.16,0 0,8.63 z m 0,-17.25 1477.16,0 0,-8.62 -1477.16,0 0,8.62 z m 0,-17.25 1477.16,0 0,-8.63 -1477.16,0 0,8.63 z m 0,-17.26 1477.16,0 0,-8.62 -1477.16,0 0,8.62 z m 0,-17.25 1477.16,0 0,-8.62 -1477.16,0 0,8.62 z m 0,-17.25 1477.16,0 0,-8.62 -1477.16,0 0,8.62 z m 0,-17.24 1477.16,0 0,-8.64 -1477.16,0 0,8.64 z m 0,-17.26 1477.16,0 0,-8.63 -1477.16,0 0,8.63 z m 0,-17.26 1477.16,0 0,-8.62 -1477.16,0 0,8.62 z m 0,-17.25 1477.16,0 0,-8.62 -1477.16,0 0,8.62 z m 0,-17.25 1477.16,0 0,-8.62 -1477.16,0 0,8.62 z"
         id="path1248"
         inkscape:connector-curvature="0" />
    </clipPath>
    <clipPath
       clipPathUnits="userSpaceOnUse"
       id="clipPath1548">
      <path
         d="m 4384.68,2877.45 0,-41.76 -117.05,0 c -11.52,0 -20.88,9.35 -20.88,20.88 l 0,101.06 c 0,11.53 9.36,20.88 20.88,20.88 l 117.05,0 0,-41.76 -96.16,0 0,-59.3 96.16,0 z"
         id="path1550"
         style="clip-rule:evenodd"
         inkscape:connector-curvature="0" />
    </clipPath>
    <clipPath
       clipPathUnits="userSpaceOnUse"
       id="clipPath1554">
      <path
         d="m 4085.32,2978.51 627.12,0 0,-3.66 -627.12,0 0,3.66 z m 0,-7.32 627.12,0 0,-3.66 -627.12,0 0,3.66 z m 0,-7.32 627.12,0 0,-3.67 -627.12,0 0,3.67 z m 0,-7.33 627.12,0 0,-3.66 -627.12,0 0,3.66 z m 0,-7.33 627.12,0 0,-3.66 -627.12,0 0,3.66 z m 0,-7.32 627.12,0 0,-3.66 -627.12,0 0,3.66 z m 0,-7.32 627.12,0 0,-3.66 -627.12,0 0,3.66 z m 0,-7.32 627.12,0 0,-3.67 -627.12,0 0,3.67 z m 0,-7.33 627.12,0 0,-3.66 -627.12,0 0,3.66 z m 0,-7.33 627.12,0 0,-3.66 -627.12,0 0,3.66 z m 0,-7.32 627.12,0 0,-3.66 -627.12,0 0,3.66 z m 0,-7.32 627.12,0 0,-3.66 -627.12,0 0,3.66 z m 0,-7.33 627.12,0 0,-3.66 -627.12,0 0,3.66 z m 0,-7.32 627.12,0 0,-3.66 -627.12,0 0,3.66 z m 0,-7.33 627.12,0 0,-3.66 -627.12,0 0,3.66 z m 0,-7.32 627.12,0 0,-3.66 -627.12,0 0,3.66 z m 0,-7.32 627.12,0 0,-3.67 -627.12,0 0,3.67 z m 0,-7.33 627.12,0 0,-3.66 -627.12,0 0,3.66 z m 0,-7.32 627.12,0 0,-3.66 -627.12,0 0,3.66 z m 0,-7.32 627.12,0 0,-3.67 -627.12,0 0,3.67 z"
         id="path1556"
         inkscape:connector-curvature="0" />
    </clipPath>
    <clipPath
       clipPathUnits="userSpaceOnUse"
       id="clipPath1818">
      <path
         d="m 4659.39,2835.69 -41.76,0 0,101.06 -50.6,0 0,41.76 142.97,0 0,-41.76 -50.61,0 0,-101.06 z"
         id="path1820"
         style="clip-rule:evenodd"
         inkscape:connector-curvature="0" />
    </clipPath>
    <clipPath
       clipPathUnits="userSpaceOnUse"
       id="clipPath1824">
      <path
         d="m 4082.88,2978.51 627.12,0 0,-3.66 -627.12,0 0,3.66 z m 0,-7.32 627.12,0 0,-3.66 -627.12,0 0,3.66 z m 0,-7.32 627.12,0 0,-3.67 -627.12,0 0,3.67 z m 0,-7.33 627.12,0 0,-3.66 -627.12,0 0,3.66 z m 0,-7.33 627.12,0 0,-3.66 -627.12,0 0,3.66 z m 0,-7.32 627.12,0 0,-3.66 -627.12,0 0,3.66 z m 0,-7.32 627.12,0 0,-3.66 -627.12,0 0,3.66 z m 0,-7.32 627.12,0 0,-3.67 -627.12,0 0,3.67 z m 0,-7.33 627.12,0 0,-3.66 -627.12,0 0,3.66 z m 0,-7.33 627.12,0 0,-3.66 -627.12,0 0,3.66 z m 0,-7.32 627.12,0 0,-3.66 -627.12,0 0,3.66 z m 0,-7.32 627.12,0 0,-3.66 -627.12,0 0,3.66 z m 0,-7.33 627.12,0 0,-3.66 -627.12,0 0,3.66 z m 0,-7.32 627.12,0 0,-3.66 -627.12,0 0,3.66 z m 0,-7.33 627.12,0 0,-3.66 -627.12,0 0,3.66 z m 0,-7.32 627.12,0 0,-3.66 -627.12,0 0,3.66 z m 0,-7.32 627.12,0 0,-3.67 -627.12,0 0,3.67 z m 0,-7.33 627.12,0 0,-3.66 -627.12,0 0,3.66 z m 0,-7.32 627.12,0 0,-3.66 -627.12,0 0,3.66 z m 0,-7.32 627.12,0 0,-3.67 -627.12,0 0,3.67 z"
         id="path1826"
         inkscape:connector-curvature="0" />
    </clipPath>
    <clipPath
       clipPathUnits="userSpaceOnUse"
       id="clipPath2088">
      <path
         d="m 4405.74,2978.51 41.76,0 0,-101.06 59.3,0 0,101.06 41.76,0 0,-121.94 c 0,-11.53 -9.34,-20.88 -20.87,-20.88 l -101.07,0 c -11.53,0 -20.88,9.35 -20.88,20.88 l 0,121.94 z"
         id="path2090"
         style="clip-rule:evenodd"
         inkscape:connector-curvature="0" />
    </clipPath>
    <clipPath
       clipPathUnits="userSpaceOnUse"
       id="clipPath2094">
      <path
         d="m 4082.88,2978.51 627.12,0 0,-3.66 -627.12,0 0,3.66 z m 0,-7.32 627.12,0 0,-3.66 -627.12,0 0,3.66 z m 0,-7.32 627.12,0 0,-3.67 -627.12,0 0,3.67 z m 0,-7.33 627.12,0 0,-3.66 -627.12,0 0,3.66 z m 0,-7.33 627.12,0 0,-3.66 -627.12,0 0,3.66 z m 0,-7.32 627.12,0 0,-3.66 -627.12,0 0,3.66 z m 0,-7.32 627.12,0 0,-3.66 -627.12,0 0,3.66 z m 0,-7.32 627.12,0 0,-3.67 -627.12,0 0,3.67 z m 0,-7.33 627.12,0 0,-3.66 -627.12,0 0,3.66 z m 0,-7.33 627.12,0 0,-3.66 -627.12,0 0,3.66 z m 0,-7.32 627.12,0 0,-3.66 -627.12,0 0,3.66 z m 0,-7.32 627.12,0 0,-3.66 -627.12,0 0,3.66 z m 0,-7.33 627.12,0 0,-3.66 -627.12,0 0,3.66 z m 0,-7.32 627.12,0 0,-3.66 -627.12,0 0,3.66 z m 0,-7.33 627.12,0 0,-3.66 -627.12,0 0,3.66 z m 0,-7.32 627.12,0 0,-3.66 -627.12,0 0,3.66 z m 0,-7.32 627.12,0 0,-3.67 -627.12,0 0,3.67 z m 0,-7.33 627.12,0 0,-3.66 -627.12,0 0,3.66 z m 0,-7.32 627.12,0 0,-3.66 -627.12,0 0,3.66 z m 0,-7.32 627.12,0 0,-3.67 -627.12,0 0,3.67 z"
         id="path2096"
         inkscape:connector-curvature="0" />
    </clipPath>
    <clipPath
       clipPathUnits="userSpaceOnUse"
       id="clipPath2482">
      <path
         d="m 4122.29,2835.69 -41.76,0 0,142.82 32.19,0 c 7.79,-1.5 13.61,-4.35 17.49,-8.55 l 51.38,-55.56 0,64.11 41.77,-0.3 0,-142.52 -22.15,0 c -15.19,0 -22.39,7.24 -27.62,13.59 l -51.3,59.93 0,-73.52 z"
         id="path2484"
         style="clip-rule:evenodd"
         inkscape:connector-curvature="0" />
    </clipPath>
    <clipPath
       clipPathUnits="userSpaceOnUse"
       id="clipPath2488">
      <path
         d="m 4080.53,2978.51 627.12,0 0,-3.66 -627.12,0 0,3.66 z m 0,-7.32 627.12,0 0,-3.66 -627.12,0 0,3.66 z m 0,-7.32 627.12,0 0,-3.67 -627.12,0 0,3.67 z m 0,-7.33 627.12,0 0,-3.66 -627.12,0 0,3.66 z m 0,-7.33 627.12,0 0,-3.66 -627.12,0 0,3.66 z m 0,-7.32 627.12,0 0,-3.66 -627.12,0 0,3.66 z m 0,-7.32 627.12,0 0,-3.66 -627.12,0 0,3.66 z m 0,-7.32 627.12,0 0,-3.67 -627.12,0 0,3.67 z m 0,-7.33 627.12,0 0,-3.66 -627.12,0 0,3.66 z m 0,-7.33 627.12,0 0,-3.66 -627.12,0 0,3.66 z m 0,-7.32 627.12,0 0,-3.66 -627.12,0 0,3.66 z m 0,-7.32 627.12,0 0,-3.66 -627.12,0 0,3.66 z m 0,-7.33 627.12,0 0,-3.66 -627.12,0 0,3.66 z m 0,-7.32 627.12,0 0,-3.66 -627.12,0 0,3.66 z m 0,-7.33 627.12,0 0,-3.66 -627.12,0 0,3.66 z m 0,-7.32 627.12,0 0,-3.66 -627.12,0 0,3.66 z m 0,-7.32 627.12,0 0,-3.67 -627.12,0 0,3.67 z m 0,-7.33 627.12,0 0,-3.66 -627.12,0 0,3.66 z m 0,-7.32 627.12,0 0,-3.66 -627.12,0 0,3.66 z m 0,-7.32 627.12,0 0,-3.67 -627.12,0 0,3.67 z"
         id="path2490"
         inkscape:connector-curvature="0" />
    </clipPath>
  </defs>
  <sodipodi:namedview
     pagecolor="#ffffff"
     bordercolor="#666666"
     borderopacity="1"
     objecttolerance="10"
     gridtolerance="10"
     guidetolerance="10"
     inkscape:pageopacity="0"
     inkscape:pageshadow="2"
     inkscape:window-width="1920"
     inkscape:window-height="1017"
     id="namedview11714"
     showgrid="false"
     showborder="true"
     fit-margin-top="0"
     fit-margin-left="0"
     fit-margin-right="0"
     fit-margin-bottom="0"
     inkscape:zoom="1"
     inkscape:cx="4.6476588"
     inkscape:cy="143.92081"
     inkscape:window-x="-8"
     inkscape:window-y="-8"
     inkscape:window-maximized="1"
     inkscape:current-layer="svg11712" />
  <g
     id="g20145"
     transform="matrix(1.0731095,0,0,1.0731095,-9.4126089,-8.2182226)">
    <path
       inkscape:connector-curvature="0"
       id="path2788"
       style="fill:#ed1d29;fill-opacity:1;fill-rule:nonzero;stroke:none"
       d="m 277.66052,88.792721 0,-0.0082 C 276.90733,83.404598 275.6059,78.173262 273.80747,73.146874 271.99367,68.089745 269.7341,63.350287 267.09025,58.984862 253.24079,36.153484 228.17034,21.202416 200.00002,21.202416 l 0,0.02459 -0.008,0 0,-0.02459 c -5.44653,0 -10.81108,0.568735 -16.02705,1.654967 -5.13911,1.070862 -10.15012,2.669468 -14.95107,4.739458 -24.53246,10.560025 -42.80371,33.31967 -46.69262,61.208177 l -0.96839,6.968284 -6.90168,-1.219449 -0.004,0 c -5.46703,-0.968387 -10.85208,-1.357791 -16.093666,-1.204079 -5.231337,0.158631 -10.437055,0.855665 -15.545422,2.059743 -25.9876,6.112623 -47.947943,25.326643 -56.64805,52.108423 l -0.0041,0.004 0.0041,0 c -1.695957,5.21597 -2.818056,10.48317 -3.391915,15.72988 -0.578982,5.30819 -0.614848,10.57027 -0.138136,15.71451 2.464518,26.58707 18.465953,50.99656 43.792591,63.30891 l 6.281703,3.05374 -3.233079,6.16898 0,0.004 -0.02869,0.0512 c -2.572116,4.83169 -4.595993,9.82221 -6.076753,14.89983 -1.470513,5.02127 -2.418405,10.19112 -2.848799,15.42758 -2.218578,26.61269 9.263719,53.44571 32.038736,69.99026 l 0.0082,0.008 0,0 c 4.442281,3.22795 9.11513,5.92304 13.9417,8.09551 4.85218,2.18271 9.83245,3.8428 14.86396,4.97002 26.05933,5.87181 54.21939,-1.80355 73.76134,-22.08843 l 4.90341,-5.08275 4.8778,5.10837 0.008,0.0164 0,0 c 3.78132,3.91966 7.90081,7.37818 12.27648,10.3602 4.33468,2.9564 8.95117,5.45166 13.77773,7.47553 24.61956,10.32946 53.68653,7.69074 76.46666,-8.85894 l 0,0 0.004,-0.004 c 4.43203,-3.21771 8.44392,-6.82994 11.9998,-10.74448 3.55075,-3.91966 6.66086,-8.14162 9.30984,-12.59415 13.64963,-22.97996 15.05866,-52.1494 1.80354,-76.99953 l -3.34579,-6.27658 6.42516,-3.02301 0,-0.004 0,0 c 4.90854,-2.38766 9.45842,-5.23133 13.62402,-8.44392 4.18609,-3.2382 7.99303,-6.86068 11.38495,-10.79572 17.43095,-20.21827 23.90223,-48.67551 15.197,-75.46754 l 0.004,0 -0.0123,-0.004 c -1.6857,-5.19548 -3.88378,-10.11939 -6.52251,-14.73075 -2.6541,-4.64211 -5.71296,-8.92043 -9.11001,-12.78373 -17.6153,-20.054181 -44.91458,-30.388761 -72.66987,-25.454601 l -6.89655,1.224573 -0.97864,-6.978531 z m 8.92043,-20.202899 c 1.34242,3.750576 2.45427,7.649741 3.30994,11.661628 30.15832,-3.110109 59.23553,8.920428 78.49567,30.8449 4.04775,4.61137 7.64461,9.61214 10.69836,14.9562 3.07424,5.3748 5.64636,11.14925 7.63437,17.27212 l -0.004,0.004 0.0123,0.004 c 10.20136,31.40339 2.60798,64.78454 -17.84598,88.50233 -3.97602,4.61136 -8.43367,8.85382 -13.34734,12.65051 -3.18184,2.45427 -6.54301,4.72408 -10.08352,6.77358 12.28673,27.73992 9.84783,59.10232 -5.03151,84.16252 -3.12035,5.24671 -6.7787,10.21674 -10.95455,14.81785 -4.17585,4.60112 -8.87431,8.8282 -14.06466,12.6044 l 0,0 -0.004,0 c -26.71517,19.41384 -60.79828,22.50858 -89.66542,10.39606 -5.57975,-2.34154 -11.00066,-5.27745 -16.16539,-8.80258 -3.30994,-2.25444 -6.50715,-4.75483 -9.55577,-7.4909 -22.58032,20.24389 -53.16391,27.61182 -81.60578,21.1969 -5.97428,-1.34242 -11.82559,-3.28431 -17.4617,-5.82056 -5.666858,-2.55163 -11.139011,-5.70273 -16.324234,-9.4738 l -0.0164,-0.008 0,0.004 C 57.875722,343.42612 44.395166,311.96124 46.992902,280.7628 c 0.502126,-6.00502 1.624225,-12.06128 3.381667,-18.07655 1.127222,-3.85305 2.520879,-7.66511 4.175847,-11.41057 -26.23354,-15.22262 -42.690988,-42.04539 -45.3809502,-71.09186 -0.5687349,-6.09213 -0.5328688,-12.24061 0.138136,-18.36861 0.6763335,-6.1946 1.9880102,-12.38407 3.9708972,-18.48644 l 0.0041,0 -0.0041,0 c 10.206487,-31.41364 35.968642,-53.952967 66.454885,-61.121077 5.871804,-1.383409 11.9793,-2.19296 18.245632,-2.372291 4.032384,-0.122969 8.080134,0.0164 12.117644,0.425271 6.3688,-29.651074 26.7869,-53.594303 53.56356,-65.122714 5.55925,-2.397909 11.43106,-4.26295 17.5488,-5.5336369 6.05113,-1.2604396 12.33284,-1.9214019 18.78362,-1.9214019 l 0,-0.024594 0.008,0 0,0.024594 c 33.01737,0 62.40713,17.5334328 78.64426,44.2998408 3.20234,5.282574 5.8718,10.84183 7.93667,16.606036" />
    <path
       inkscape:connector-curvature="0"
       id="path2790"
       style="fill:#ed1d29;fill-opacity:1;fill-rule:evenodd;stroke:none"
       d="m 343.10603,161.54468 c 2.3313,2.50039 5.98453,3.57125 9.4533,2.44402 4.77532,-1.55249 7.38843,-6.68135 5.83594,-11.45155 -1.5525,-4.77533 -6.68136,-7.38843 -11.45668,-5.83594 -3.46365,1.1221 -5.78983,4.13998 -6.20997,7.5319 l -23.02096,7.48065 2.37229,7.31158 23.02608,-7.48066" />
    <path
       inkscape:connector-curvature="0"
       id="path2792"
       style="fill:#ed1d29;fill-opacity:1;fill-rule:evenodd;stroke:none"
       d="m 284.59806,326.97994 c -1.65496,2.99226 -1.54736,6.7992 0.59948,9.75048 2.94615,4.058 8.6335,4.95977 12.69663,2.0085 4.058,-2.94615 4.95977,-8.6335 2.0085,-12.69662 -2.14172,-2.94615 -5.72834,-4.22709 -9.08439,-3.5815 l -14.22862,-19.58292 -6.22022,4.52426 14.22862,19.5778" />
    <path
       inkscape:connector-curvature="0"
       id="path2794"
       style="fill:#ed1d29;fill-opacity:1;fill-rule:evenodd;stroke:none"
       d="m 109.18176,322.4608 c -3.36117,-0.64559 -6.94779,0.63535 -9.08951,3.5815 -2.951273,4.06312 -2.049495,9.75047 2.01363,12.69662 4.058,2.95127 9.74535,2.0495 12.69662,-2.0085 2.14173,-2.95128 2.24932,-6.75822 0.59948,-9.75048 l 14.22862,-19.5778 -6.22534,-4.52426 -14.2235,19.58292" />
    <path
       inkscape:connector-curvature="0"
       id="path2796"
       style="fill:#ed1d29;fill-opacity:1;fill-rule:evenodd;stroke:none"
       d="m 203.84283,54.781347 c 3.09986,-1.450018 5.2467,-4.59087 5.2467,-8.238971 0,-5.021264 -4.06824,-9.089512 -9.08951,-9.089512 -5.02126,0 -9.08951,4.068248 -9.08951,9.089512 0,3.648101 2.14685,6.788953 5.24159,8.238971 l 0,24.204539 7.69073,0 0,-24.204539" />
    <path
       inkscape:connector-curvature="0"
       id="path2798"
       style="fill:#ed1d29;fill-opacity:1;fill-rule:evenodd;stroke:none"
       d="m 59.271428,154.23311 c -0.420147,-3.39192 -2.746324,-6.4098 -6.215095,-7.5319 -4.775324,-1.55249 -9.904186,1.06061 -11.456678,5.83594 -1.547369,4.7702 1.065737,9.89906 5.841061,11.45155 3.463647,1.12723 7.116873,0.0566 9.453297,-2.44402 l 23.020956,7.48066 2.377415,-7.31158 -23.020956,-7.48065" />
    <path
       inkscape:connector-curvature="0"
       id="path2800"
       style="fill:#ed1d29;fill-opacity:1;fill-rule:nonzero;stroke:none"
       d="m 249.87961,205.12207 c 0.29226,0 1.40391,0.36891 3.30482,1.09648 1.62422,0.89666 2.42352,1.70621 2.42352,2.42353 -0.004,0.63535 -1.12209,0.94277 -3.35604,0.93252 -3.40217,-0.0922 -7.05539,-0.15863 -10.96993,-0.17912 -4.09387,-0.0246 -9.44817,0.13321 -16.05779,0.47651 -4.74971,0.16887 -9.81196,0.68658 -15.19701,1.55249 -1.51663,0.28693 -2.45427,0.42014 -2.80269,0.42014 -0.73269,-0.004 -1.81892,-0.32792 -3.26894,-0.96838 -1.532,-0.68146 -2.29544,-1.23482 -2.29031,-1.66009 0,-0.50213 0.50212,-0.79418 1.49613,-0.87616 5.31844,-0.0123 9.38156,-0.17421 12.174,-0.48676 -0.23077,-0.51237 -0.35866,-1.04012 -0.37916,-1.59348 -0.51749,-2.66434 -0.78393,-3.99652 -0.78393,-3.99652 -0.30742,-2.07511 -0.63534,-3.5405 -0.994,-4.37055 -0.22545,-0.85054 -0.80955,-1.64984 -1.74207,-2.37741 -0.35867,-0.1947 -0.54312,-0.32792 -0.54312,-0.41502 0.004,-0.69683 0.31234,-1.05549 0.90178,-1.05037 0.73269,0 1.39878,0.0873 2.00338,0.25619 1.69083,-0.0717 3.41753,-0.22053 5.18522,-0.47139 4.09387,-0.53286 10.00666,-1.2092 17.75888,-2.05974 1.18871,-0.13322 2.34667,-0.36891 3.44828,-0.70195 0.6917,-0.13814 1.15796,-0.20003 1.40902,-0.20003 0.46626,0.004 1.45002,0.43552 2.94103,1.2963 1.57299,1.11698 2.3518,1.97264 2.3518,2.57212 -0.004,0.49188 -0.20495,0.98376 -0.59948,1.47051 -1.29631,1.89066 -2.25957,3.90429 -2.85905,6.04089 -0.85054,2.4594 -1.28606,3.68909 -1.28606,3.68909 l -0.0205,0.0664 c 2.03412,-0.19471 3.77619,-0.40457 5.23134,-0.6251 1.32704,-0.16888 2.16734,-0.26111 2.52087,-0.26111 z m -31.73131,2.45428 c 1.88042,-0.15372 3.82231,-0.29718 5.83082,-0.42527 l -0.0615,-0.24103 c -0.94276,-5.47215 -1.6191,-8.73597 -2.029,-9.77609 -0.24102,-0.66096 -0.3894,-1.15796 -0.44064,-1.49613 -1.27069,0.20495 -2.526,0.43039 -3.76595,0.67633 -0.33816,0.10781 -0.65584,0.19471 -0.94789,0.25127 0,0.61485 0.0717,1.25532 0.1947,1.91628 0.83005,4.16048 1.2502,7.02977 1.23995,8.613 0,0.16888 -0.008,0.32792 -0.0205,0.48164 z m 6.53789,-12.41995 0.27669,0.1074 c 0.50212,0.27668 0.73781,0.5841 0.73781,0.8864 -0.0123,1.37317 0.008,2.37229 0.0369,3.00251 0.15864,4.13486 0.25619,6.75309 0.28202,7.87519 1.4039,-0.082 2.8283,-0.15371 4.28344,-0.22012 0.23569,-2.56699 0.42015,-4.78557 0.55849,-6.65573 0.0976,-1.78819 0.15863,-3.18697 0.16396,-4.1861 0,-0.28692 -0.0717,-0.75319 -0.23078,-1.40902 l 0.0164,-0.0771 -0.6251,0.0615 c -1.86504,0.16888 -3.69421,0.37424 -5.49777,0.61485 z m 8.67962,-0.91202 c 0.1078,0.0615 0.21519,0.12789 0.32792,0.1947 0.93764,0.61997 1.4039,1.15284 1.39878,1.62423 0,0.21519 -0.13322,0.65583 -0.42015,1.2963 -0.33325,1.19896 -0.64559,2.38254 -0.9274,3.58149 -0.78393,2.66435 -1.44489,4.596 -1.99826,5.80008 0.6251,-0.0205 1.25532,-0.0512 1.89066,-0.0717 1.7267,-0.1078 3.34068,-0.22052 4.83681,-0.33816 0.0287,-0.10248 0.0615,-0.20495 0.0976,-0.31276 0.25619,-1.34754 0.64047,-3.56099 1.15796,-6.61474 0.35375,-2.34155 0.52775,-3.82743 0.52775,-4.45765 0.004,-0.64047 -0.58411,-0.96327 -1.7472,-0.96839 -1.23482,-0.008 -2.94615,0.082 -5.14423,0.26643" />
    <path
       inkscape:connector-curvature="0"
       id="path2802"
       style="fill:#ed1d29;fill-opacity:1;fill-rule:nonzero;stroke:none"
       d="m 235.29233,180.41029 c 4.92391,1.32192 8.92043,2.71045 11.96905,4.17584 1.34755,0.55849 2.43378,1.40391 3.26383,2.51576 0.60972,1.14771 0.92739,2.24419 0.95813,3.28431 -0.0922,1.08624 -0.79417,1.57299 -2.09048,1.46027 -0.47651,-0.0463 -1.02987,-0.20495 -1.65497,-0.47139 -1.77794,-1.23482 -3.42266,-2.55162 -4.93928,-3.96064 -2.58237,-2.37742 -5.10837,-4.33981 -7.60363,-5.89743 -0.37424,-0.21519 -0.54312,-0.45089 -0.5175,-0.73782 0.0246,-0.27668 0.22545,-0.40457 0.61485,-0.3689" />
    <path
       inkscape:connector-curvature="0"
       id="path2804"
       style="fill:#ed1d29;fill-opacity:1;fill-rule:nonzero;stroke:none"
       d="m 218.13293,181.00976 c 0.50213,0 1.2092,0.25127 2.10586,0.76344 1.85479,1.21945 2.78219,2.26982 2.78219,3.16135 0,0.14346 -0.26152,0.31767 -0.7993,0.50212 -0.45602,0.28693 -0.95814,0.64559 -1.49101,1.07086 -2.37742,1.9419 -4.76508,3.54563 -7.14249,4.82144 -1.92141,1.05037 -4.11437,1.9419 -6.55839,2.71046 -1.65497,0.52262 -2.74632,0.78393 -3.27919,0.78393 -0.323,0 -0.48163,-0.0873 -0.48163,-0.24102 0,-0.1078 0.20495,-0.23077 0.60972,-0.37916 2.1571,-1.10672 4.32956,-2.43377 6.48666,-3.99651 1.96751,-1.40903 3.7557,-3.01276 5.37992,-4.81119 1.0145,-1.11185 1.52687,-2.1366 1.52687,-3.08449 0,-0.87616 0.28201,-1.30143 0.86079,-1.30143" />
    <path
       inkscape:connector-curvature="0"
       id="path2806"
       style="fill:#ed1d29;fill-opacity:1;fill-rule:nonzero;stroke:none"
       d="m 240.27261,171.08508 c 0.76343,0 1.74719,0.33817 2.97176,1.02987 0.80443,0.39965 1.21433,0.89153 1.21433,1.48076 0,0.52775 -0.68658,0.94277 -2.06999,1.2502 -1.58836,0.51749 -5.13399,1.20407 -10.63688,2.03924 -8.32608,1.1426 -13.76236,1.71646 -16.29861,1.72158 -1.80868,0.004 -3.064,-0.23036 -3.7762,-0.68658 -0.69683,-0.55337 -1.05549,-1.035 -1.05549,-1.43465 0,-0.43552 0.99401,-0.68146 2.99227,-0.75319 4.68309,-0.43552 9.8427,-1.16309 15.45831,-2.17246 3.90942,-0.64047 7.06564,-1.32705 9.49429,-2.0495 0.85054,-0.2816 1.4244,-0.42527 1.70621,-0.42527" />
    <path
       inkscape:connector-curvature="0"
       id="path2808"
       style="fill:#ed1d29;fill-opacity:1;fill-rule:nonzero;stroke:none"
       d="m 238.19237,157.78386 c 0.72757,-0.15863 2.03925,-0.008 3.97089,0.45089 1.84455,0.66096 2.83856,1.34754 2.99739,2.06999 0.0369,0.15863 -0.15863,0.39432 -0.56873,0.71732 -0.65584,0.42527 -1.532,1.26044 -2.6336,2.50551 -1.70109,1.99826 -3.66348,4.00164 -5.8923,6.00502 -1.532,1.18358 -2.45427,1.80868 -2.78732,1.88041 -0.23077,0.0512 -0.37424,-0.041 -0.43039,-0.28693 1.7062,-3.02813 2.97177,-5.67198 3.78644,-7.93667 0.66609,-1.87529 0.9069,-3.23308 0.72757,-4.05288 -0.16396,-0.74294 0.11805,-1.19895 0.83005,-1.35266" />
    <path
       inkscape:connector-curvature="0"
       id="path2810"
       style="fill:#ed1d29;fill-opacity:1;fill-rule:nonzero;stroke:none"
       d="m 213.788,162.10317 c 0.74807,0 1.57299,0.16396 2.44403,0.50212 2.13659,0.66097 3.73008,1.39366 4.79581,2.20321 0.93765,0.92228 1.41928,2.19296 1.41928,3.79669 0,1.63447 -0.67633,2.4389 -2.01875,2.4389 -0.55337,0 -1.15284,-0.29185 -1.78819,-0.88128 -1.19895,-1.05549 -2.87954,-3.28432 -5.06225,-6.69673 -0.2816,-0.34841 -0.41502,-0.60972 -0.41502,-0.78393 0.0873,-0.38407 0.29717,-0.57898 0.62509,-0.57898" />
    <path
       inkscape:connector-curvature="0"
       id="path2812"
       style="fill:#ed1d29;fill-opacity:1;fill-rule:nonzero;stroke:none"
       d="m 196.59786,175.65546 c 0.30251,0 1.2297,0.41502 2.77194,1.25019 1.48076,0.88128 2.21858,1.66521 2.21858,2.33642 0,0.39433 -0.25086,0.96839 -0.73782,1.74207 -0.63022,1.15284 -1.16309,3.33556 -1.5986,6.53789 -0.87104,7.44992 -1.65497,12.51217 -2.33643,15.20726 -1.05549,3.98114 -2.4389,6.67623 -4.10924,8.09038 -1.06573,0.90178 -1.9009,1.34754 -2.53112,1.34754 -0.57898,0 -1.13235,-0.52262 -1.65497,-1.58835 -0.99913,-1.67034 -2.38254,-3.49952 -4.17585,-5.48753 0,-0.20495 0.0771,-0.31767 0.23078,-0.31767 2.70533,0.98888 4.47814,1.48076 5.29282,1.48076 0.63022,0 1.17333,-0.54312 1.64984,-1.64472 1.17846,-2.19296 2.2442,-6.24584 3.17672,-12.174 0.70708,-4.59599 1.06574,-8.54127 1.06574,-11.83584 0,-1.01962 -0.68658,-1.53199 -2.06487,-1.53199 -0.93764,0 -2.38254,0.20003 -4.33468,0.57898 -0.52262,0.10739 -1.04524,0.22011 -1.56787,0.34841 -0.55848,3.29457 -1.13747,6.19973 -1.73694,8.72573 -1.2297,4.6626 -3.03326,8.98704 -5.40555,12.96818 -2.26981,3.70446 -4.80094,6.1741 -7.57801,7.40893 -1.00937,0.54824 -1.75744,0.89665 -2.25956,1.03499 -0.4099,0 -0.60461,-0.1078 -0.60461,-0.31275 0,-0.34842 0.31276,-0.77369 0.94277,-1.27069 3.22796,-3.53538 5.44654,-6.39442 6.67623,-8.57714 1.31168,-2.26469 2.57212,-5.30307 3.80182,-9.12025 0.8198,-2.59261 1.56274,-5.85131 2.2237,-9.7556 -0.3894,0.12297 -0.77881,0.25127 -1.16821,0.38408 -0.57899,0.16396 -1.00426,0.24102 -1.27069,0.24102 -0.71732,0 -1.52175,-0.29226 -2.40303,-0.88129 -0.88129,-0.52262 -1.3168,-0.94276 -1.3168,-1.26044 0.15371,-0.27135 0.52262,-0.39965 1.09648,-0.39965 1.37828,-0.0512 3.20233,-0.28693 5.47215,-0.70195 0.44064,-3.12548 0.6917,-6.27658 0.76856,-9.46354 0,-1.26044 -0.13814,-2.35692 -0.42015,-3.28432 -0.18978,-0.52262 -0.27668,-0.86591 -0.27668,-1.05037 0.23077,-0.60972 0.63022,-0.91715 1.18871,-0.91715 0.56361,0 1.47563,0.34842 2.73607,1.04525 1.26044,0.74806 1.89066,1.37828 1.89066,1.89066 0,0.34841 -0.12788,0.86078 -0.39965,1.54737 -0.27135,1.02987 -0.57386,2.60798 -0.89153,4.73433 -0.23077,1.65497 -0.46113,3.23308 -0.69683,4.74458 3.16135,-0.6046 5.64124,-1.22457 7.43455,-1.87529 0.46626,-0.12789 0.76343,-0.1947 0.90178,-0.1947" />
    <path
       inkscape:connector-curvature="0"
       id="path2814"
       style="fill:#ed1d29;fill-opacity:1;fill-rule:nonzero;stroke:none"
       d="m 168.2021,197.92835 c 0.33817,0 1.01963,0.11272 2.03925,0.34841 0.91715,0.323 1.38341,0.6046 1.38341,0.84542 0,0.36891 -0.56361,0.67121 -1.67546,0.9069 -1.36804,0.17421 -2.51576,0.33817 -3.4534,0.497 -0.48163,0.10248 -1.37316,0.27668 -2.69509,0.53287 l -0.082,3.66347 c 2.9564,-0.68145 5.25183,-1.26044 6.89143,-1.74719 0.77881,-0.22545 1.32705,-0.33817 1.65497,-0.33817 1.09135,0 1.64472,0.27135 1.64472,0.82492 0,0.5175 -0.61997,0.96327 -1.8548,1.30656 -8.7001,2.62335 -13.05016,3.95552 -13.05016,4.01701 -1.82917,0.58923 -3.48414,1.19383 -4.9444,1.8343 -0.88129,0.52774 -1.53713,0.78905 -1.99314,0.78905 -0.68146,0 -1.62422,-0.51237 -2.81293,-1.51662 -1.32193,-1.24507 -1.98289,-2.08024 -1.98289,-2.49014 0,-0.45601 0.31276,-0.69171 0.94277,-0.69171 0.27135,0 0.72245,0.0562 1.35267,0.15863 0.85566,0.0976 1.39878,0.15372 1.62422,0.15372 0.63535,0 1.80868,-0.10781 3.50464,-0.33817 2.17246,-0.45089 4.16047,-0.87616 5.95891,-1.27581 l -0.0566,-3.73008 -0.55336,0.10739 c -1.88554,0.33325 -3.24845,0.50725 -4.08362,0.50725 -0.7122,0 -1.30656,-0.0767 -1.78306,-0.2152 -0.7122,-0.24102 -1.07086,-0.50212 -1.07086,-0.79418 0,-0.42014 0.56361,-0.65583 1.67546,-0.70195 1.95727,-0.29185 3.88379,-0.62509 5.7847,-1.00425 l -0.0459,-3.26894 -0.86591,0.14838 c -2.05975,0.33817 -3.54051,0.50725 -4.46278,0.50725 -0.70195,0 -1.2963,-0.0717 -1.77281,-0.2152 -0.71733,-0.23569 -1.07086,-0.497 -1.07086,-0.78905 0,-0.42015 0.55336,-0.66097 1.67546,-0.7122 2.18271,-0.29718 4.33981,-0.63535 6.46616,-1.01963 l -0.0512,-3.55587 -1.28606,0.12297 c -1.38341,0.1742 -2.44402,0.2611 -3.18184,0.2611 -0.14838,0 -0.28693,0 -0.42015,-0.008 -0.0459,0.34841 -0.13321,0.64559 -0.25618,0.8864 -0.19962,0.4099 -0.42527,0.61997 -0.69683,0.61997 -0.3021,0 -0.61485,-0.25126 -0.91715,-0.74806 -0.46626,-0.65072 -0.71732,-1.34242 -0.75831,-2.06487 -0.37916,-1.60373 -0.56362,-2.40815 -0.56362,-2.40815 -0.23036,-1.25532 -0.46626,-2.13148 -0.71732,-2.62848 -0.15863,-0.5175 -0.57386,-0.99401 -1.24507,-1.42953 -0.24594,-0.11805 -0.37424,-0.20495 -0.37424,-0.24593 0,-0.58411 0.24594,-0.87616 0.74295,-0.87616 0.79418,0 1.49613,0.11805 2.10073,0.34349 0.13814,0.0459 0.26643,0.0976 0.3894,0.14838 1.08111,-0.0668 2.18272,-0.20003 3.31506,-0.39965 1.05549,-0.16396 2.30056,-0.35374 3.73521,-0.56361 l -0.0246,-1.57811 c -0.041,-0.58411 -0.24594,-1.2092 -0.61485,-1.89066 -0.29225,-0.33817 -0.43551,-0.58923 -0.43551,-0.75831 0,-0.0664 0.004,-0.13322 0.008,-0.18938 -0.16396,0.008 -0.31276,0.0164 -0.44065,0.0164 -0.082,0 -0.15863,-0.004 -0.24102,-0.004 -0.0459,0.27135 -0.12297,0.50725 -0.22544,0.70708 -0.1947,0.4099 -0.42527,0.61997 -0.69171,0.61997 -0.30209,0 -0.61997,-0.25127 -0.92227,-0.74807 -0.46626,-0.65071 -0.7122,-1.34242 -0.74806,-2.06999 -0.29718,-2.54649 -0.47651,-4.10923 -0.54312,-4.68822 -0.85054,0.16396 -1.73695,0.34309 -2.66947,0.53287 -0.82492,0.20495 -1.32192,0.31234 -1.50638,0.31234 -0.8864,0 -1.77281,-0.23569 -2.64897,-0.70195 -1.06061,-0.42014 -1.58324,-0.83517 -1.58324,-1.2092 0,-0.17421 0.38941,-0.34841 1.18359,-0.51237 2.44914,-0.34842 4.76507,-0.69171 6.96316,-1.02987 -0.15863,-1.36292 -0.31767,-2.38254 -0.48163,-3.06912 -0.16396,-1.06062 -0.57386,-2.03413 -1.23482,-2.93591 -0.25619,-0.23569 -0.38941,-0.40989 -0.38941,-0.51749 0,-0.57386 0.25127,-0.86592 0.74807,-0.86592 0.78905,0 1.49613,0.10781 2.10073,0.34842 1.33217,0.45089 1.99313,1.0145 1.99313,1.67546 0,0.77881 0.0287,1.60886 0.0976,2.46964 0.0668,0.85054 0.12789,1.66009 0.18446,2.42353 2.71558,-0.43039 5.21596,-0.85054 7.50115,-1.26044 0.23569,-2.11098 0.35374,-3.5405 0.35374,-4.28344 0,-1.00426 -0.14346,-1.88554 -0.44576,-2.62848 -0.2357,-0.44577 -0.35334,-0.66096 -0.35334,-0.66096 0,-0.75832 0.4304,-1.13747 1.30656,-1.13747 0.74806,0 1.74719,0.37915 3.00251,1.12722 1.17846,0.80955 1.77281,1.50125 1.77281,2.06487 0,0.0767 -0.1078,0.2816 -0.33817,0.64046 -0.44064,0.57386 -0.81979,1.53712 -1.11185,2.88979 l -0.28693,1.24507 c 1.66009,-0.36891 2.72071,-0.55336 3.18697,-0.55336 0.20495,0 0.89665,0.20495 2.05462,0.63022 1.41927,0.8864 2.12635,1.56786 2.12635,2.03412 -0.0459,0.46114 -0.70708,0.7122 -1.99314,0.75319 -1.89066,0.0566 -3.9299,0.17421 -6.11262,0.36891 l -1.30143,5.68735 c 0.52263,0.38407 0.77881,0.7122 0.77881,0.98376 0,0.24594 -0.12789,0.37915 -0.41502,0.37915 -1.1016,0 -2.12123,0.0771 -3.03838,0.25127 l -2.029,0.26111 c 0.18938,0.0668 0.38408,0.13321 0.58923,0.21027 0.83517,0.42527 1.24507,0.89153 1.24507,1.39879 0,0.34349 -0.0512,0.70195 -0.18445,1.09135 -0.13322,0.61485 -0.2152,1.15284 -0.24102,1.60886 1.27068,-0.17913 2.64385,-0.36891 4.11436,-0.56874 0.78905,-0.1078 1.54737,-0.30251 2.28519,-0.57386 0.45601,-0.1078 0.76856,-0.16396 0.92739,-0.16396 0.43552,0 1.31168,0.35866 2.66435,1.06062 1.42952,0.9069 2.14172,1.61397 2.14172,2.11098 0,0.1947 -0.15904,0.3894 -0.48676,0.59947 -1.05549,0.74295 -1.82405,1.54737 -2.31593,2.39791 -0.67633,0.98376 -1.02474,1.48589 -1.02474,1.48589 -0.16396,0.25126 -0.35375,0.45089 -0.56874,0.60972 0.6046,0.43552 0.90178,0.81468 0.90178,1.1221 0,0.33325 -0.23569,0.50725 -0.7327,0.50725 -1.96239,0 -3.7557,0.1078 -5.39017,0.33325 l -2.72583,0.27668 -0.0717,3.2382 c 0.92227,-0.18937 1.8343,-0.39432 2.7412,-0.59947 1.2092,-0.24062 1.87017,-0.35867 2.00338,-0.35867 0.33325,0 1.01963,0.11805 2.03413,0.35867 0.92227,0.323 1.38853,0.6046 1.38853,0.84541 0,0.36399 -0.56361,0.67121 -1.68059,0.9069 -1.48588,0.16396 -2.73607,0.33817 -3.76594,0.49701 -0.50213,0.0976 -1.4244,0.2611 -2.76682,0.50212 l -0.0717,3.1716 c 0.84542,-0.18979 1.68571,-0.38941 2.52088,-0.59948 1.10673,-0.23569 1.71133,-0.34841 1.82918,-0.34841 z m -2.85392,-28.3394 c -0.7993,0.0873 -1.61398,0.18445 -2.44402,0.28693 -1.30656,0.15371 -2.81806,0.37916 -4.53963,0.67633 0.12788,1.94702 0.20986,3.53026 0.24594,4.73946 1.63447,-0.18978 3.17159,-0.48163 4.62673,-0.87103 0.64047,-0.13814 1.14772,-0.2357 1.51663,-0.28161 0.23077,-1.69083 0.42527,-3.20746 0.59435,-4.54988 z m -9.8632,19.34211 c 1.68571,-0.11272 3.33043,-0.27135 4.91879,-0.46626 l -0.0771,-5.10324 c -1.48076,0.26643 -2.93078,0.57898 -4.3398,0.95301 -0.4304,0.16396 -0.80443,0.25619 -1.11186,0.27669 0.0164,0.24102 0.041,0.48675 0.082,0.74294 0.24594,1.47563 0.42528,2.67459 0.52775,3.59686 z m 8.72573,-6.13311 -0.11272,5.12886 c 0.52262,-0.0869 1.04012,-0.17913 1.55249,-0.27668 1.80868,-0.28693 3.0435,-0.43552 3.71471,-0.45602 l 0.041,-0.0767 c 0.15371,-0.4765 0.38941,-1.25531 0.69171,-2.34667 0.1947,-0.83517 0.3025,-1.36291 0.3025,-1.59348 0,-0.52775 -0.52774,-0.78906 -1.58836,-0.78906 -1.00937,0 -2.54137,0.13814 -4.60111,0.4099" />
    <path
       inkscape:connector-curvature="0"
       id="path2816"
       style="fill:#2eb442;fill-opacity:1;fill-rule:evenodd;stroke:none"
       d="m 213.96221,296.73451 c 7.06051,-1.05549 13.85971,-2.90003 20.32075,-5.43628 l 10.27309,17.79987 24.17892,-13.96219 -10.28847,-17.82549 c 5.49265,-4.38079 10.47805,-9.37131 14.86397,-14.85884 l 17.82548,10.28334 13.96219,-24.17379 -17.79986,-10.27822 c 2.53625,-6.45079 4.38079,-13.26024 5.43628,-20.32075 l 20.56156,0 0,-27.92437 -20.56668,0 c -1.06062,-7.06051 -2.90004,-13.85971 -5.43629,-20.31562 l 17.79987,-10.27822 -13.95707,-24.18405 -17.82548,10.29359 c -4.38592,-5.48752 -9.37644,-10.47804 -14.86397,-14.86396 l 10.28847,-17.82549 -24.17892,-13.962183 -10.27822,17.804993 c -6.45591,-2.53625 -13.26023,-4.3808 -20.32074,-5.43629 l 0,-20.56156 -27.91925,0 0,20.56156 c -7.06052,1.05549 -13.86484,2.90004 -20.32075,5.43629 l -10.27822,-17.804993 -24.17892,13.962183 10.29359,17.82549 c -5.49265,4.38592 -10.47804,9.37644 -14.86396,14.86396 l -17.83061,-10.28846 -13.957066,24.17892 17.799866,10.27822 c -2.53625,6.45591 -4.3808,13.26023 -5.43116,20.32074 l -20.566687,0 0,27.91925 20.566687,0 c 1.05036,7.06051 2.90003,13.86996 5.43116,20.32075 l -17.799866,10.27822 13.957066,24.17892 17.83061,-10.28847 c 4.38592,5.48753 9.37131,10.47805 14.86396,14.85884 l -10.29359,17.83061 24.17892,13.95707 10.27822,-17.79987 c 6.45591,2.54137 13.26023,4.38592 20.32075,5.43628 l 0,20.56669 27.92437,0 0,-20.56669 z m -13.96219,-19.88522 c 40.22647,0 72.85444,-32.61772 72.85444,-72.84931 0,-40.22647 -32.62797,-72.85444 -72.85444,-72.85444 -40.23159,0 -72.85443,32.62797 -72.85443,72.85444 0,40.23159 32.62284,72.84931 72.85443,72.84931" />
    <path
       inkscape:connector-curvature="0"
       id="path2818"
       style="fill:#2eb442;fill-opacity:1;fill-rule:nonzero;stroke:none"
       d="m 201.83944,236.91999 0,7.46017 -20.90485,0 c -2.05974,0 -3.73008,-1.67034 -3.73008,-3.73008 l 0,-18.05093 c 0,-2.05975 1.67034,-3.73009 3.73008,-3.73009 l 20.90485,0 0,7.46017 -17.17477,0 0,10.59076 17.17477,0" />
    <path
       inkscape:connector-curvature="0"
       id="path2820"
       style="fill:#2eb442;fill-opacity:1;fill-rule:nonzero;stroke:none"
       d="m 250.90436,244.38016 -7.45504,0 0,-18.05093 -9.03827,0 0,-7.46017 25.53159,0 0,7.46017 -9.03828,0 0,18.05093" />
    <path
       inkscape:connector-curvature="0"
       id="path2822"
       style="fill:#2eb442;fill-opacity:1;fill-rule:nonzero;stroke:none"
       d="m 205.60027,218.86906 7.46016,0 0,18.05093 10.59077,0 0,-18.05093 7.46016,0 0,21.78102 c 0,2.05974 -1.67034,3.73008 -3.73008,3.73008 l -18.05093,0 c -2.05974,0 -3.73008,-1.67034 -3.73008,-3.73008 l 0,-21.78102" />
    <path
       inkscape:connector-curvature="0"
       id="path2824"
       style="fill:#2eb442;fill-opacity:1;fill-rule:nonzero;stroke:none"
       d="m 154.97261,244.38016 -7.45504,0 0,-25.5111 5.74884,0 c 1.38853,0.26644 2.42865,0.77881 3.12035,1.52688 l 9.18174,9.92468 0,-11.45156 7.45504,0.0562 0,25.45473 -3.9504,0 c -2.71558,0 -4.00164,-1.2963 -4.93416,-2.42865 l -9.16637,-10.70349 0,13.13214" />
  </g>
</svg>
